<mxfile host="app.diagrams.net" modified="2024-05-13T14:29:42.155Z" agent="Mozilla/5.0 (Windows NT 10.0; Win64; x64) AppleWebKit/537.36 (KHTML, like Gecko) Chrome/124.0.0.0 Safari/537.36 Edg/124.0.0.0" etag="rUxv0LozB_qBfydBdiT-" version="24.4.0" type="device">
  <diagram name="Page-1" id="Y86S1bmcuFwzpDUU1Rd4">
    <mxGraphModel dx="2612" dy="1607" grid="1" gridSize="10" guides="1" tooltips="1" connect="1" arrows="1" fold="1" page="1" pageScale="1" pageWidth="850" pageHeight="1100" math="0" shadow="0">
      <root>
        <mxCell id="0" />
        <mxCell id="1" parent="0" />
        <mxCell id="P2tkytI08X2VvsEyy3mc-61" value="Table" style="whiteSpace=wrap;html=1;align=center;" parent="1" vertex="1">
          <mxGeometry x="-516" y="281" width="100" height="40" as="geometry" />
        </mxCell>
        <mxCell id="P2tkytI08X2VvsEyy3mc-62" value="Order" style="whiteSpace=wrap;html=1;align=center;" parent="1" vertex="1">
          <mxGeometry x="879" y="452" width="100" height="40" as="geometry" />
        </mxCell>
        <mxCell id="P2tkytI08X2VvsEyy3mc-63" value="Menu_Item" style="whiteSpace=wrap;html=1;align=center;" parent="1" vertex="1">
          <mxGeometry x="486" y="743" width="100" height="40" as="geometry" />
        </mxCell>
        <mxCell id="P2tkytI08X2VvsEyy3mc-64" value="Date" style="ellipse;whiteSpace=wrap;html=1;align=center;" parent="1" vertex="1">
          <mxGeometry x="1364" y="492" width="100" height="40" as="geometry" />
        </mxCell>
        <mxCell id="P2tkytI08X2VvsEyy3mc-65" value="" style="endArrow=none;html=1;rounded=0;entryX=0;entryY=0.5;entryDx=0;entryDy=0;exitX=1;exitY=0.5;exitDx=0;exitDy=0;" parent="1" source="P2tkytI08X2VvsEyy3mc-62" target="P2tkytI08X2VvsEyy3mc-64" edge="1">
          <mxGeometry width="50" height="50" relative="1" as="geometry">
            <mxPoint x="831" y="401" as="sourcePoint" />
            <mxPoint x="881" y="351" as="targetPoint" />
          </mxGeometry>
        </mxCell>
        <mxCell id="P2tkytI08X2VvsEyy3mc-66" value="Order_Id" style="ellipse;whiteSpace=wrap;html=1;align=center;fontStyle=4;" parent="1" vertex="1">
          <mxGeometry x="1314" y="292" width="100" height="40" as="geometry" />
        </mxCell>
        <mxCell id="P2tkytI08X2VvsEyy3mc-69" value="Status" style="ellipse;whiteSpace=wrap;html=1;align=center;" parent="1" vertex="1">
          <mxGeometry x="1329" y="593" width="100" height="40" as="geometry" />
        </mxCell>
        <mxCell id="P2tkytI08X2VvsEyy3mc-70" value="" style="endArrow=none;html=1;rounded=0;entryX=0;entryY=0.5;entryDx=0;entryDy=0;exitX=1;exitY=0.5;exitDx=0;exitDy=0;" parent="1" source="P2tkytI08X2VvsEyy3mc-62" target="P2tkytI08X2VvsEyy3mc-66" edge="1">
          <mxGeometry width="50" height="50" relative="1" as="geometry">
            <mxPoint x="861" y="281" as="sourcePoint" />
            <mxPoint x="911" y="231" as="targetPoint" />
          </mxGeometry>
        </mxCell>
        <mxCell id="P2tkytI08X2VvsEyy3mc-71" value="" style="endArrow=none;html=1;rounded=0;entryX=0;entryY=0.5;entryDx=0;entryDy=0;exitX=1;exitY=0.5;exitDx=0;exitDy=0;" parent="1" source="P2tkytI08X2VvsEyy3mc-62" target="ME01KTfv1DTsT3AE9B-a-9" edge="1">
          <mxGeometry width="50" height="50" relative="1" as="geometry">
            <mxPoint x="951" y="301" as="sourcePoint" />
            <mxPoint x="961" y="191.00000000000003" as="targetPoint" />
          </mxGeometry>
        </mxCell>
        <mxCell id="P2tkytI08X2VvsEyy3mc-72" value="" style="endArrow=none;html=1;rounded=0;entryX=0;entryY=0.5;entryDx=0;entryDy=0;exitX=1;exitY=0.5;exitDx=0;exitDy=0;" parent="1" source="P2tkytI08X2VvsEyy3mc-62" edge="1">
          <mxGeometry width="50" height="50" relative="1" as="geometry">
            <mxPoint x="1201" y="271" as="sourcePoint" />
            <mxPoint x="1329" y="612" as="targetPoint" />
          </mxGeometry>
        </mxCell>
        <mxCell id="P2tkytI08X2VvsEyy3mc-73" value="Item_Id" style="ellipse;whiteSpace=wrap;html=1;align=center;fontStyle=4;" parent="1" vertex="1">
          <mxGeometry x="285" y="893" width="100" height="40" as="geometry" />
        </mxCell>
        <mxCell id="P2tkytI08X2VvsEyy3mc-74" value="Item_Name" style="ellipse;whiteSpace=wrap;html=1;align=center;" parent="1" vertex="1">
          <mxGeometry x="406" y="893" width="100" height="40" as="geometry" />
        </mxCell>
        <mxCell id="P2tkytI08X2VvsEyy3mc-75" value="Description" style="ellipse;whiteSpace=wrap;html=1;align=center;" parent="1" vertex="1">
          <mxGeometry x="526" y="893" width="100" height="40" as="geometry" />
        </mxCell>
        <mxCell id="P2tkytI08X2VvsEyy3mc-76" value="" style="endArrow=none;html=1;rounded=0;entryX=0.5;entryY=1;entryDx=0;entryDy=0;exitX=0.5;exitY=0;exitDx=0;exitDy=0;" parent="1" source="P2tkytI08X2VvsEyy3mc-73" target="P2tkytI08X2VvsEyy3mc-63" edge="1">
          <mxGeometry width="50" height="50" relative="1" as="geometry">
            <mxPoint x="396" y="863" as="sourcePoint" />
            <mxPoint x="446" y="813" as="targetPoint" />
          </mxGeometry>
        </mxCell>
        <mxCell id="P2tkytI08X2VvsEyy3mc-77" value="" style="endArrow=none;html=1;rounded=0;exitX=0.5;exitY=0;exitDx=0;exitDy=0;" parent="1" source="P2tkytI08X2VvsEyy3mc-74" edge="1">
          <mxGeometry width="50" height="50" relative="1" as="geometry">
            <mxPoint x="506" y="873" as="sourcePoint" />
            <mxPoint x="536" y="783" as="targetPoint" />
          </mxGeometry>
        </mxCell>
        <mxCell id="P2tkytI08X2VvsEyy3mc-78" value="" style="endArrow=none;html=1;rounded=0;entryX=0.5;entryY=1;entryDx=0;entryDy=0;exitX=0.5;exitY=0;exitDx=0;exitDy=0;" parent="1" source="P2tkytI08X2VvsEyy3mc-75" target="P2tkytI08X2VvsEyy3mc-63" edge="1">
          <mxGeometry width="50" height="50" relative="1" as="geometry">
            <mxPoint x="566" y="883" as="sourcePoint" />
            <mxPoint x="616" y="833" as="targetPoint" />
          </mxGeometry>
        </mxCell>
        <mxCell id="P2tkytI08X2VvsEyy3mc-79" value="Price" style="ellipse;whiteSpace=wrap;html=1;align=center;" parent="1" vertex="1">
          <mxGeometry x="646" y="893" width="100" height="40" as="geometry" />
        </mxCell>
        <mxCell id="P2tkytI08X2VvsEyy3mc-81" value="" style="endArrow=none;html=1;rounded=0;entryX=0.5;entryY=1;entryDx=0;entryDy=0;exitX=0.5;exitY=0;exitDx=0;exitDy=0;" parent="1" source="P2tkytI08X2VvsEyy3mc-79" target="P2tkytI08X2VvsEyy3mc-63" edge="1">
          <mxGeometry width="50" height="50" relative="1" as="geometry">
            <mxPoint x="636" y="873" as="sourcePoint" />
            <mxPoint x="686" y="823" as="targetPoint" />
          </mxGeometry>
        </mxCell>
        <mxCell id="P2tkytI08X2VvsEyy3mc-84" value="Menu_Item_ID" style="ellipse;whiteSpace=wrap;html=1;align=center;" parent="1" vertex="1">
          <mxGeometry x="1400" y="401" width="100" height="40" as="geometry" />
        </mxCell>
        <mxCell id="P2tkytI08X2VvsEyy3mc-86" value="" style="endArrow=none;html=1;rounded=0;entryX=0;entryY=0.5;entryDx=0;entryDy=0;exitX=1;exitY=0.5;exitDx=0;exitDy=0;" parent="1" source="P2tkytI08X2VvsEyy3mc-62" target="P2tkytI08X2VvsEyy3mc-84" edge="1">
          <mxGeometry width="50" height="50" relative="1" as="geometry">
            <mxPoint x="1001" y="301" as="sourcePoint" />
            <mxPoint x="1409" y="427" as="targetPoint" />
          </mxGeometry>
        </mxCell>
        <mxCell id="P2tkytI08X2VvsEyy3mc-115" value="User" style="whiteSpace=wrap;html=1;align=center;" parent="1" vertex="1">
          <mxGeometry x="179" y="250" width="100" height="40" as="geometry" />
        </mxCell>
        <mxCell id="P2tkytI08X2VvsEyy3mc-116" value="First_name" style="ellipse;whiteSpace=wrap;html=1;align=center;" parent="1" vertex="1">
          <mxGeometry x="-40" y="-20" width="100" height="40" as="geometry" />
        </mxCell>
        <mxCell id="P2tkytI08X2VvsEyy3mc-117" value="Email" style="ellipse;whiteSpace=wrap;html=1;align=center;" parent="1" vertex="1">
          <mxGeometry x="509" y="90" width="100" height="40" as="geometry" />
        </mxCell>
        <mxCell id="P2tkytI08X2VvsEyy3mc-118" value="Phone" style="ellipse;whiteSpace=wrap;html=1;align=center;" parent="1" vertex="1">
          <mxGeometry x="249" y="90" width="100" height="40" as="geometry" />
        </mxCell>
        <mxCell id="P2tkytI08X2VvsEyy3mc-119" value="Role" style="ellipse;whiteSpace=wrap;html=1;align=center;" parent="1" vertex="1">
          <mxGeometry x="369" y="90" width="100" height="40" as="geometry" />
        </mxCell>
        <mxCell id="P2tkytI08X2VvsEyy3mc-120" value="Last_name" style="ellipse;whiteSpace=wrap;html=1;align=center;" parent="1" vertex="1">
          <mxGeometry x="99" y="-10" width="100" height="40" as="geometry" />
        </mxCell>
        <mxCell id="P2tkytI08X2VvsEyy3mc-121" value="Name" style="ellipse;whiteSpace=wrap;html=1;align=center;" parent="1" vertex="1">
          <mxGeometry x="69" y="110" width="100" height="40" as="geometry" />
        </mxCell>
        <mxCell id="P2tkytI08X2VvsEyy3mc-122" value="" style="endArrow=none;html=1;rounded=0;entryX=0.5;entryY=1;entryDx=0;entryDy=0;" parent="1" edge="1" target="P2tkytI08X2VvsEyy3mc-120">
          <mxGeometry width="50" height="50" relative="1" as="geometry">
            <mxPoint x="119" y="110" as="sourcePoint" />
            <mxPoint x="148.99999999999977" y="50" as="targetPoint" />
          </mxGeometry>
        </mxCell>
        <mxCell id="P2tkytI08X2VvsEyy3mc-123" value="" style="endArrow=none;html=1;rounded=0;entryX=0.5;entryY=1;entryDx=0;entryDy=0;" parent="1" source="P2tkytI08X2VvsEyy3mc-121" target="P2tkytI08X2VvsEyy3mc-116" edge="1">
          <mxGeometry width="50" height="50" relative="1" as="geometry">
            <mxPoint x="49" y="110" as="sourcePoint" />
            <mxPoint x="99" y="60" as="targetPoint" />
          </mxGeometry>
        </mxCell>
        <mxCell id="P2tkytI08X2VvsEyy3mc-124" value="" style="endArrow=none;html=1;rounded=0;entryX=0.5;entryY=1;entryDx=0;entryDy=0;exitX=0.5;exitY=0;exitDx=0;exitDy=0;" parent="1" source="P2tkytI08X2VvsEyy3mc-115" target="P2tkytI08X2VvsEyy3mc-129" edge="1">
          <mxGeometry width="50" height="50" relative="1" as="geometry">
            <mxPoint x="59" y="340" as="sourcePoint" />
            <mxPoint x="-41.00000000000023" y="190" as="targetPoint" />
          </mxGeometry>
        </mxCell>
        <mxCell id="P2tkytI08X2VvsEyy3mc-125" value="" style="endArrow=none;html=1;rounded=0;exitX=0.5;exitY=0;exitDx=0;exitDy=0;entryX=0.5;entryY=1;entryDx=0;entryDy=0;" parent="1" source="P2tkytI08X2VvsEyy3mc-115" target="P2tkytI08X2VvsEyy3mc-121" edge="1">
          <mxGeometry width="50" height="50" relative="1" as="geometry">
            <mxPoint x="149" y="230" as="sourcePoint" />
            <mxPoint x="199" y="180" as="targetPoint" />
          </mxGeometry>
        </mxCell>
        <mxCell id="P2tkytI08X2VvsEyy3mc-126" value="" style="endArrow=none;html=1;rounded=0;entryX=0.5;entryY=1;entryDx=0;entryDy=0;exitX=0.5;exitY=0;exitDx=0;exitDy=0;" parent="1" source="P2tkytI08X2VvsEyy3mc-115" target="P2tkytI08X2VvsEyy3mc-118" edge="1">
          <mxGeometry width="50" height="50" relative="1" as="geometry">
            <mxPoint x="239" y="250" as="sourcePoint" />
            <mxPoint x="129" y="160" as="targetPoint" />
          </mxGeometry>
        </mxCell>
        <mxCell id="P2tkytI08X2VvsEyy3mc-127" value="" style="endArrow=none;html=1;rounded=0;entryX=0.5;entryY=1;entryDx=0;entryDy=0;exitX=0.5;exitY=0;exitDx=0;exitDy=0;" parent="1" source="P2tkytI08X2VvsEyy3mc-115" target="P2tkytI08X2VvsEyy3mc-117" edge="1">
          <mxGeometry width="50" height="50" relative="1" as="geometry">
            <mxPoint x="409" y="240" as="sourcePoint" />
            <mxPoint x="459" y="190" as="targetPoint" />
          </mxGeometry>
        </mxCell>
        <mxCell id="P2tkytI08X2VvsEyy3mc-128" value="" style="endArrow=none;html=1;rounded=0;exitX=0.5;exitY=0;exitDx=0;exitDy=0;entryX=0.453;entryY=1.066;entryDx=0;entryDy=0;entryPerimeter=0;" parent="1" source="P2tkytI08X2VvsEyy3mc-115" target="P2tkytI08X2VvsEyy3mc-119" edge="1">
          <mxGeometry width="50" height="50" relative="1" as="geometry">
            <mxPoint x="299" y="220" as="sourcePoint" />
            <mxPoint x="349" y="170" as="targetPoint" />
          </mxGeometry>
        </mxCell>
        <mxCell id="P2tkytI08X2VvsEyy3mc-129" value="User_id" style="ellipse;whiteSpace=wrap;html=1;align=center;fontStyle=4;" parent="1" vertex="1">
          <mxGeometry x="-140" y="30" width="100" height="40" as="geometry" />
        </mxCell>
        <mxCell id="P2tkytI08X2VvsEyy3mc-130" value="Customer" style="whiteSpace=wrap;html=1;align=center;" parent="1" vertex="1">
          <mxGeometry x="-1" y="450" width="100" height="40" as="geometry" />
        </mxCell>
        <mxCell id="P2tkytI08X2VvsEyy3mc-131" value="Waiter" style="whiteSpace=wrap;html=1;align=center;" parent="1" vertex="1">
          <mxGeometry x="286" y="450" width="100" height="40" as="geometry" />
        </mxCell>
        <mxCell id="P2tkytI08X2VvsEyy3mc-132" value="Admin/ Manager" style="whiteSpace=wrap;html=1;align=center;" parent="1" vertex="1">
          <mxGeometry x="160" y="450" width="100" height="40" as="geometry" />
        </mxCell>
        <mxCell id="P2tkytI08X2VvsEyy3mc-133" value="" style="ellipse;whiteSpace=wrap;html=1;align=center;aspect=fixed;fillColor=none;strokeColor=none;resizable=0;perimeter=centerPerimeter;rotatable=0;allowArrows=0;points=[];outlineConnect=1;" parent="1" vertex="1">
          <mxGeometry x="319" y="260" width="10" height="10" as="geometry" />
        </mxCell>
        <mxCell id="P2tkytI08X2VvsEyy3mc-134" value="" style="ellipse;whiteSpace=wrap;html=1;align=center;aspect=fixed;fillColor=none;strokeColor=none;resizable=0;perimeter=centerPerimeter;rotatable=0;allowArrows=0;points=[];outlineConnect=1;" parent="1" vertex="1">
          <mxGeometry x="99" y="360" width="10" height="10" as="geometry" />
        </mxCell>
        <mxCell id="P2tkytI08X2VvsEyy3mc-135" value="" style="shape=requiredInterface;html=1;verticalLabelPosition=bottom;sketch=0;rotation=-210;fillColor=#d5e8d4;strokeColor=#82b366;" parent="1" vertex="1">
          <mxGeometry x="134" y="400" width="10" height="20" as="geometry" />
        </mxCell>
        <mxCell id="P2tkytI08X2VvsEyy3mc-136" value="d" style="ellipse;whiteSpace=wrap;html=1;aspect=fixed;" parent="1" vertex="1">
          <mxGeometry x="214" y="340" width="30" height="30" as="geometry" />
        </mxCell>
        <mxCell id="P2tkytI08X2VvsEyy3mc-137" value="" style="endArrow=none;html=1;rounded=0;entryX=0.5;entryY=1;entryDx=0;entryDy=0;exitX=0.5;exitY=0;exitDx=0;exitDy=0;" parent="1" source="P2tkytI08X2VvsEyy3mc-136" target="P2tkytI08X2VvsEyy3mc-115" edge="1">
          <mxGeometry width="50" height="50" relative="1" as="geometry">
            <mxPoint x="149" y="360" as="sourcePoint" />
            <mxPoint x="199" y="310" as="targetPoint" />
          </mxGeometry>
        </mxCell>
        <mxCell id="P2tkytI08X2VvsEyy3mc-138" value="" style="endArrow=none;html=1;rounded=0;entryX=0.5;entryY=1;entryDx=0;entryDy=0;exitX=0.5;exitY=0;exitDx=0;exitDy=0;" parent="1" source="P2tkytI08X2VvsEyy3mc-130" target="P2tkytI08X2VvsEyy3mc-136" edge="1">
          <mxGeometry width="50" height="50" relative="1" as="geometry">
            <mxPoint x="119" y="440" as="sourcePoint" />
            <mxPoint x="169" y="390" as="targetPoint" />
          </mxGeometry>
        </mxCell>
        <mxCell id="P2tkytI08X2VvsEyy3mc-139" value="" style="endArrow=none;html=1;rounded=0;exitX=0.5;exitY=0;exitDx=0;exitDy=0;entryX=0.5;entryY=1;entryDx=0;entryDy=0;fillColor=#d5e8d4;strokeColor=#82b366;" parent="1" source="P2tkytI08X2VvsEyy3mc-132" target="P2tkytI08X2VvsEyy3mc-136" edge="1">
          <mxGeometry width="50" height="50" relative="1" as="geometry">
            <mxPoint x="309" y="420" as="sourcePoint" />
            <mxPoint x="359" y="370" as="targetPoint" />
          </mxGeometry>
        </mxCell>
        <mxCell id="P2tkytI08X2VvsEyy3mc-140" value="" style="shape=requiredInterface;html=1;verticalLabelPosition=bottom;sketch=0;rotation=105;fillColor=#d5e8d4;strokeColor=#82b366;" parent="1" vertex="1">
          <mxGeometry x="214" y="410" width="10" height="20" as="geometry" />
        </mxCell>
        <mxCell id="P2tkytI08X2VvsEyy3mc-141" value="" style="endArrow=none;html=1;rounded=0;exitX=0.5;exitY=0;exitDx=0;exitDy=0;entryX=0.5;entryY=1;entryDx=0;entryDy=0;" parent="1" source="P2tkytI08X2VvsEyy3mc-131" target="P2tkytI08X2VvsEyy3mc-136" edge="1">
          <mxGeometry width="50" height="50" relative="1" as="geometry">
            <mxPoint x="299" y="420" as="sourcePoint" />
            <mxPoint x="349" y="370" as="targetPoint" />
          </mxGeometry>
        </mxCell>
        <mxCell id="P2tkytI08X2VvsEyy3mc-142" value="" style="shape=requiredInterface;html=1;verticalLabelPosition=bottom;sketch=0;rotation=60;" parent="1" vertex="1">
          <mxGeometry x="299" y="420" width="10" height="20" as="geometry" />
        </mxCell>
        <mxCell id="P2tkytI08X2VvsEyy3mc-143" value="" style="endArrow=none;html=1;rounded=0;exitX=0;exitY=0.5;exitDx=0;exitDy=0;entryX=1;entryY=0.5;entryDx=0;entryDy=0;" parent="1" source="P2tkytI08X2VvsEyy3mc-61" target="P2tkytI08X2VvsEyy3mc-144" edge="1">
          <mxGeometry width="50" height="50" relative="1" as="geometry">
            <mxPoint x="-546" y="221" as="sourcePoint" />
            <mxPoint x="-496" y="171" as="targetPoint" />
          </mxGeometry>
        </mxCell>
        <mxCell id="P2tkytI08X2VvsEyy3mc-144" value="Table_Id" style="ellipse;whiteSpace=wrap;html=1;align=center;fontStyle=4;" parent="1" vertex="1">
          <mxGeometry x="-870" y="250" width="100" height="40" as="geometry" />
        </mxCell>
        <mxCell id="P2tkytI08X2VvsEyy3mc-147" value="" style="endArrow=none;html=1;rounded=0;entryX=1;entryY=0.5;entryDx=0;entryDy=0;exitX=0;exitY=0.5;exitDx=0;exitDy=0;" parent="1" source="P2tkytI08X2VvsEyy3mc-61" target="P2tkytI08X2VvsEyy3mc-151" edge="1">
          <mxGeometry width="50" height="50" relative="1" as="geometry">
            <mxPoint x="-446" y="281" as="sourcePoint" />
            <mxPoint x="-421" y="151" as="targetPoint" />
          </mxGeometry>
        </mxCell>
        <mxCell id="P2tkytI08X2VvsEyy3mc-150" value="" style="endArrow=none;html=1;rounded=0;entryX=0.5;entryY=1;entryDx=0;entryDy=0;exitX=0.5;exitY=0;exitDx=0;exitDy=0;" parent="1" source="ME01KTfv1DTsT3AE9B-a-10" target="P2tkytI08X2VvsEyy3mc-130" edge="1">
          <mxGeometry width="50" height="50" relative="1" as="geometry">
            <mxPoint x="-50" y="560" as="sourcePoint" />
            <mxPoint x="30" y="530" as="targetPoint" />
          </mxGeometry>
        </mxCell>
        <mxCell id="P2tkytI08X2VvsEyy3mc-151" value="Capacity" style="ellipse;whiteSpace=wrap;html=1;align=center;" parent="1" vertex="1">
          <mxGeometry x="-860" y="160" width="100" height="40" as="geometry" />
        </mxCell>
        <mxCell id="P2tkytI08X2VvsEyy3mc-152" value="Status" style="ellipse;whiteSpace=wrap;html=1;align=center;" parent="1" vertex="1">
          <mxGeometry x="-850" y="350" width="100" height="40" as="geometry" />
        </mxCell>
        <mxCell id="P2tkytI08X2VvsEyy3mc-153" value="" style="endArrow=none;html=1;rounded=0;entryX=1;entryY=0.5;entryDx=0;entryDy=0;exitX=0;exitY=0.5;exitDx=0;exitDy=0;" parent="1" source="P2tkytI08X2VvsEyy3mc-61" target="P2tkytI08X2VvsEyy3mc-152" edge="1">
          <mxGeometry width="50" height="50" relative="1" as="geometry">
            <mxPoint x="-316" y="271" as="sourcePoint" />
            <mxPoint x="-266" y="221" as="targetPoint" />
          </mxGeometry>
        </mxCell>
        <mxCell id="ME01KTfv1DTsT3AE9B-a-3" value="Hourly_Paid" style="ellipse;whiteSpace=wrap;html=1;align=center;" parent="1" vertex="1">
          <mxGeometry x="440" y="580" width="100" height="40" as="geometry" />
        </mxCell>
        <mxCell id="ME01KTfv1DTsT3AE9B-a-4" value="salary" style="ellipse;whiteSpace=wrap;html=1;align=center;" parent="1" vertex="1">
          <mxGeometry x="60" y="570" width="100" height="40" as="geometry" />
        </mxCell>
        <mxCell id="ME01KTfv1DTsT3AE9B-a-7" value="" style="endArrow=none;html=1;rounded=0;exitX=0.5;exitY=0;exitDx=0;exitDy=0;entryX=0.5;entryY=1;entryDx=0;entryDy=0;" parent="1" source="ME01KTfv1DTsT3AE9B-a-4" target="P2tkytI08X2VvsEyy3mc-132" edge="1">
          <mxGeometry width="50" height="50" relative="1" as="geometry">
            <mxPoint x="204" y="540" as="sourcePoint" />
            <mxPoint x="254" y="490" as="targetPoint" />
          </mxGeometry>
        </mxCell>
        <mxCell id="ME01KTfv1DTsT3AE9B-a-8" value="" style="endArrow=none;html=1;rounded=0;entryX=0.5;entryY=1;entryDx=0;entryDy=0;exitX=0.5;exitY=0;exitDx=0;exitDy=0;" parent="1" source="ME01KTfv1DTsT3AE9B-a-3" target="P2tkytI08X2VvsEyy3mc-131" edge="1">
          <mxGeometry width="50" height="50" relative="1" as="geometry">
            <mxPoint x="280" y="580" as="sourcePoint" />
            <mxPoint x="330" y="530" as="targetPoint" />
          </mxGeometry>
        </mxCell>
        <mxCell id="ME01KTfv1DTsT3AE9B-a-9" value="Customer_Id" style="ellipse;whiteSpace=wrap;html=1;align=center;" parent="1" vertex="1">
          <mxGeometry x="1349" y="347" width="100" height="40" as="geometry" />
        </mxCell>
        <mxCell id="ME01KTfv1DTsT3AE9B-a-10" value="Table_Id" style="ellipse;whiteSpace=wrap;html=1;align=center;" parent="1" vertex="1">
          <mxGeometry x="-110" y="570" width="120" height="60" as="geometry" />
        </mxCell>
        <mxCell id="ME01KTfv1DTsT3AE9B-a-12" value="Order_Item" style="shape=ext;margin=3;double=1;whiteSpace=wrap;html=1;align=center;" parent="1" vertex="1">
          <mxGeometry x="1097" y="728" width="100" height="40" as="geometry" />
        </mxCell>
        <mxCell id="ME01KTfv1DTsT3AE9B-a-13" value="Order_Item_Id&lt;div&gt;..................&lt;/div&gt;" style="ellipse;whiteSpace=wrap;html=1;align=center;" parent="1" vertex="1">
          <mxGeometry x="872" y="858" width="100" height="40" as="geometry" />
        </mxCell>
        <mxCell id="ME01KTfv1DTsT3AE9B-a-14" value="Menu_Item_Id" style="ellipse;whiteSpace=wrap;html=1;align=center;" parent="1" vertex="1">
          <mxGeometry x="997" y="858" width="100" height="40" as="geometry" />
        </mxCell>
        <mxCell id="ME01KTfv1DTsT3AE9B-a-15" value="Quantity" style="ellipse;whiteSpace=wrap;html=1;align=center;" parent="1" vertex="1">
          <mxGeometry x="1117" y="858" width="100" height="40" as="geometry" />
        </mxCell>
        <mxCell id="ME01KTfv1DTsT3AE9B-a-16" value="Order_Id" style="ellipse;whiteSpace=wrap;html=1;align=center;" parent="1" vertex="1">
          <mxGeometry x="1247" y="858" width="100" height="40" as="geometry" />
        </mxCell>
        <mxCell id="ME01KTfv1DTsT3AE9B-a-18" value="" style="endArrow=none;html=1;rounded=0;entryX=0.5;entryY=1;entryDx=0;entryDy=0;exitX=0.5;exitY=0;exitDx=0;exitDy=0;" parent="1" source="ME01KTfv1DTsT3AE9B-a-13" target="ME01KTfv1DTsT3AE9B-a-12" edge="1">
          <mxGeometry width="50" height="50" relative="1" as="geometry">
            <mxPoint x="937" y="828" as="sourcePoint" />
            <mxPoint x="987" y="778" as="targetPoint" />
          </mxGeometry>
        </mxCell>
        <mxCell id="ME01KTfv1DTsT3AE9B-a-20" value="" style="endArrow=none;html=1;rounded=0;exitX=0.5;exitY=0;exitDx=0;exitDy=0;entryX=0.5;entryY=1;entryDx=0;entryDy=0;" parent="1" source="ME01KTfv1DTsT3AE9B-a-14" target="ME01KTfv1DTsT3AE9B-a-12" edge="1">
          <mxGeometry width="50" height="50" relative="1" as="geometry">
            <mxPoint x="1207" y="828" as="sourcePoint" />
            <mxPoint x="1257" y="778" as="targetPoint" />
          </mxGeometry>
        </mxCell>
        <mxCell id="ME01KTfv1DTsT3AE9B-a-21" value="" style="endArrow=none;html=1;rounded=0;entryX=0.5;entryY=1;entryDx=0;entryDy=0;exitX=0.5;exitY=0;exitDx=0;exitDy=0;" parent="1" source="ME01KTfv1DTsT3AE9B-a-15" target="ME01KTfv1DTsT3AE9B-a-12" edge="1">
          <mxGeometry width="50" height="50" relative="1" as="geometry">
            <mxPoint x="1137" y="848" as="sourcePoint" />
            <mxPoint x="1187" y="798" as="targetPoint" />
          </mxGeometry>
        </mxCell>
        <mxCell id="ME01KTfv1DTsT3AE9B-a-22" value="" style="endArrow=none;html=1;rounded=0;entryX=0.5;entryY=1;entryDx=0;entryDy=0;exitX=0.5;exitY=0;exitDx=0;exitDy=0;" parent="1" source="ME01KTfv1DTsT3AE9B-a-16" target="ME01KTfv1DTsT3AE9B-a-12" edge="1">
          <mxGeometry width="50" height="50" relative="1" as="geometry">
            <mxPoint x="1267" y="828" as="sourcePoint" />
            <mxPoint x="1317" y="778" as="targetPoint" />
          </mxGeometry>
        </mxCell>
        <mxCell id="ME01KTfv1DTsT3AE9B-a-23" value="Sign_Up" style="shape=rhombus;perimeter=rhombusPerimeter;whiteSpace=wrap;html=1;align=center;" parent="1" vertex="1">
          <mxGeometry x="480" y="250" width="80" height="50" as="geometry" />
        </mxCell>
        <mxCell id="YGmvHHZKbdmyMWi4LRZA-3" value="" style="shape=link;html=1;rounded=0;entryX=0;entryY=0.5;entryDx=0;entryDy=0;" parent="1" target="ME01KTfv1DTsT3AE9B-a-23" edge="1">
          <mxGeometry relative="1" as="geometry">
            <mxPoint x="280" y="280" as="sourcePoint" />
            <mxPoint x="459" y="274.5" as="targetPoint" />
          </mxGeometry>
        </mxCell>
        <mxCell id="YGmvHHZKbdmyMWi4LRZA-4" value="N" style="resizable=0;html=1;whiteSpace=wrap;align=right;verticalAlign=bottom;" parent="YGmvHHZKbdmyMWi4LRZA-3" connectable="0" vertex="1">
          <mxGeometry x="1" relative="1" as="geometry" />
        </mxCell>
        <mxCell id="YGmvHHZKbdmyMWi4LRZA-5" value="" style="shape=link;html=1;rounded=0;exitX=1;exitY=1;exitDx=0;exitDy=0;entryX=0.5;entryY=1;entryDx=0;entryDy=0;" parent="1" source="P2tkytI08X2VvsEyy3mc-115" target="ME01KTfv1DTsT3AE9B-a-23" edge="1">
          <mxGeometry relative="1" as="geometry">
            <mxPoint x="580" y="274.5" as="sourcePoint" />
            <mxPoint x="560" y="275" as="targetPoint" />
            <Array as="points">
              <mxPoint x="280" y="360" />
              <mxPoint x="520" y="360" />
            </Array>
          </mxGeometry>
        </mxCell>
        <mxCell id="YGmvHHZKbdmyMWi4LRZA-6" value="1" style="resizable=0;html=1;whiteSpace=wrap;align=right;verticalAlign=bottom;" parent="YGmvHHZKbdmyMWi4LRZA-5" connectable="0" vertex="1">
          <mxGeometry x="1" relative="1" as="geometry">
            <mxPoint x="-10" y="10" as="offset" />
          </mxGeometry>
        </mxCell>
        <mxCell id="YGmvHHZKbdmyMWi4LRZA-8" value="Update_Details" style="shape=rhombus;perimeter=rhombusPerimeter;whiteSpace=wrap;html=1;align=center;" parent="1" vertex="1">
          <mxGeometry x="-350" y="140" width="120" height="60" as="geometry" />
        </mxCell>
        <mxCell id="YGmvHHZKbdmyMWi4LRZA-19" value="" style="endArrow=none;html=1;rounded=0;entryX=0.5;entryY=1;entryDx=0;entryDy=0;exitX=0;exitY=0.25;exitDx=0;exitDy=0;" parent="1" source="P2tkytI08X2VvsEyy3mc-115" target="YGmvHHZKbdmyMWi4LRZA-8" edge="1">
          <mxGeometry relative="1" as="geometry">
            <mxPoint x="180" y="330" as="sourcePoint" />
            <mxPoint x="140" y="330" as="targetPoint" />
          </mxGeometry>
        </mxCell>
        <mxCell id="YGmvHHZKbdmyMWi4LRZA-20" value="1" style="resizable=0;html=1;whiteSpace=wrap;align=right;verticalAlign=bottom;" parent="YGmvHHZKbdmyMWi4LRZA-19" connectable="0" vertex="1">
          <mxGeometry x="1" relative="1" as="geometry">
            <mxPoint x="50" y="-5" as="offset" />
          </mxGeometry>
        </mxCell>
        <mxCell id="YGmvHHZKbdmyMWi4LRZA-22" value="" style="endArrow=none;html=1;rounded=0;exitX=0;exitY=0.25;exitDx=0;exitDy=0;entryX=1;entryY=0;entryDx=0;entryDy=0;" parent="1" source="P2tkytI08X2VvsEyy3mc-115" target="YGmvHHZKbdmyMWi4LRZA-8" edge="1">
          <mxGeometry relative="1" as="geometry">
            <mxPoint x="10" y="260" as="sourcePoint" />
            <mxPoint x="170" y="260" as="targetPoint" />
          </mxGeometry>
        </mxCell>
        <mxCell id="YGmvHHZKbdmyMWi4LRZA-23" value="1" style="resizable=0;html=1;whiteSpace=wrap;align=right;verticalAlign=bottom;" parent="YGmvHHZKbdmyMWi4LRZA-22" connectable="0" vertex="1">
          <mxGeometry x="1" relative="1" as="geometry">
            <mxPoint x="10" as="offset" />
          </mxGeometry>
        </mxCell>
        <mxCell id="YGmvHHZKbdmyMWi4LRZA-24" value="&lt;font style=&quot;font-size: 10px;&quot;&gt;Add/Update_Menu_Item&lt;/font&gt;" style="shape=rhombus;perimeter=rhombusPerimeter;whiteSpace=wrap;html=1;align=center;" parent="1" vertex="1">
          <mxGeometry x="300" y="610" width="128" height="70" as="geometry" />
        </mxCell>
        <mxCell id="YGmvHHZKbdmyMWi4LRZA-27" value="" style="endArrow=none;html=1;rounded=0;entryX=0.5;entryY=0;entryDx=0;entryDy=0;exitX=1;exitY=0.5;exitDx=0;exitDy=0;" parent="1" source="YGmvHHZKbdmyMWi4LRZA-24" target="P2tkytI08X2VvsEyy3mc-63" edge="1">
          <mxGeometry relative="1" as="geometry">
            <mxPoint x="405" y="650" as="sourcePoint" />
            <mxPoint x="509" y="770" as="targetPoint" />
          </mxGeometry>
        </mxCell>
        <mxCell id="YGmvHHZKbdmyMWi4LRZA-28" value="N" style="resizable=0;html=1;whiteSpace=wrap;align=right;verticalAlign=bottom;" parent="YGmvHHZKbdmyMWi4LRZA-27" connectable="0" vertex="1">
          <mxGeometry x="1" relative="1" as="geometry">
            <mxPoint x="4" y="-3" as="offset" />
          </mxGeometry>
        </mxCell>
        <mxCell id="YGmvHHZKbdmyMWi4LRZA-29" value="" style="endArrow=none;html=1;rounded=0;entryX=0;entryY=0.5;entryDx=0;entryDy=0;exitX=0.75;exitY=1;exitDx=0;exitDy=0;" parent="1" source="P2tkytI08X2VvsEyy3mc-132" target="YGmvHHZKbdmyMWi4LRZA-24" edge="1">
          <mxGeometry relative="1" as="geometry">
            <mxPoint x="100" y="650" as="sourcePoint" />
            <mxPoint x="260" y="650" as="targetPoint" />
          </mxGeometry>
        </mxCell>
        <mxCell id="YGmvHHZKbdmyMWi4LRZA-30" value="1" style="resizable=0;html=1;whiteSpace=wrap;align=right;verticalAlign=bottom;" parent="YGmvHHZKbdmyMWi4LRZA-29" connectable="0" vertex="1">
          <mxGeometry x="1" relative="1" as="geometry">
            <mxPoint x="4" y="-15" as="offset" />
          </mxGeometry>
        </mxCell>
        <mxCell id="YGmvHHZKbdmyMWi4LRZA-31" value="&lt;font style=&quot;font-size: 12px;&quot;&gt;Add/Modefy_Reservation&lt;/font&gt;" style="shape=rhombus;perimeter=rhombusPerimeter;whiteSpace=wrap;html=1;align=center;" parent="1" vertex="1">
          <mxGeometry x="-170" y="325" width="160" height="85" as="geometry" />
        </mxCell>
        <mxCell id="YGmvHHZKbdmyMWi4LRZA-32" value="" style="endArrow=none;html=1;rounded=0;exitX=0;exitY=0.5;exitDx=0;exitDy=0;entryX=1;entryY=0;entryDx=0;entryDy=0;" parent="1" source="P2tkytI08X2VvsEyy3mc-115" target="YGmvHHZKbdmyMWi4LRZA-31" edge="1">
          <mxGeometry relative="1" as="geometry">
            <mxPoint x="178" y="340" as="sourcePoint" />
            <mxPoint x="-31" y="330" as="targetPoint" />
          </mxGeometry>
        </mxCell>
        <mxCell id="YGmvHHZKbdmyMWi4LRZA-33" value="1" style="resizable=0;html=1;whiteSpace=wrap;align=right;verticalAlign=bottom;" parent="YGmvHHZKbdmyMWi4LRZA-32" connectable="0" vertex="1">
          <mxGeometry x="1" relative="1" as="geometry">
            <mxPoint x="10" as="offset" />
          </mxGeometry>
        </mxCell>
        <mxCell id="YGmvHHZKbdmyMWi4LRZA-36" value="" style="endArrow=none;html=1;rounded=0;exitX=0;exitY=0.5;exitDx=0;exitDy=0;entryX=1;entryY=0.5;entryDx=0;entryDy=0;" parent="1" source="YGmvHHZKbdmyMWi4LRZA-31" target="P2tkytI08X2VvsEyy3mc-61" edge="1">
          <mxGeometry relative="1" as="geometry">
            <mxPoint x="10" y="350" as="sourcePoint" />
            <mxPoint x="170" y="350" as="targetPoint" />
          </mxGeometry>
        </mxCell>
        <mxCell id="YGmvHHZKbdmyMWi4LRZA-37" value="N" style="resizable=0;html=1;whiteSpace=wrap;align=right;verticalAlign=bottom;" parent="YGmvHHZKbdmyMWi4LRZA-36" connectable="0" vertex="1">
          <mxGeometry x="1" relative="1" as="geometry">
            <mxPoint x="286" y="49" as="offset" />
          </mxGeometry>
        </mxCell>
        <mxCell id="YGmvHHZKbdmyMWi4LRZA-39" value="Order_Placment" style="shape=rhombus;perimeter=rhombusPerimeter;whiteSpace=wrap;html=1;align=center;" parent="1" vertex="1">
          <mxGeometry x="660" y="441" width="120" height="60" as="geometry" />
        </mxCell>
        <mxCell id="YGmvHHZKbdmyMWi4LRZA-40" value="" style="endArrow=none;html=1;rounded=0;entryX=0.5;entryY=0;entryDx=0;entryDy=0;exitX=1;exitY=0.5;exitDx=0;exitDy=0;" parent="1" source="P2tkytI08X2VvsEyy3mc-131" target="YGmvHHZKbdmyMWi4LRZA-39" edge="1">
          <mxGeometry relative="1" as="geometry">
            <mxPoint x="380" y="460" as="sourcePoint" />
            <mxPoint x="640" y="430" as="targetPoint" />
          </mxGeometry>
        </mxCell>
        <mxCell id="YGmvHHZKbdmyMWi4LRZA-41" value="1" style="resizable=0;html=1;whiteSpace=wrap;align=right;verticalAlign=bottom;" parent="YGmvHHZKbdmyMWi4LRZA-40" connectable="0" vertex="1">
          <mxGeometry x="1" relative="1" as="geometry" />
        </mxCell>
        <mxCell id="YGmvHHZKbdmyMWi4LRZA-42" value="" style="endArrow=none;html=1;rounded=0;entryX=1;entryY=0.5;entryDx=0;entryDy=0;exitX=0;exitY=0.5;exitDx=0;exitDy=0;" parent="1" source="P2tkytI08X2VvsEyy3mc-62" target="YGmvHHZKbdmyMWi4LRZA-39" edge="1">
          <mxGeometry relative="1" as="geometry">
            <mxPoint x="770" y="370" as="sourcePoint" />
            <mxPoint x="930" y="370" as="targetPoint" />
          </mxGeometry>
        </mxCell>
        <mxCell id="YGmvHHZKbdmyMWi4LRZA-43" value="N" style="resizable=0;html=1;whiteSpace=wrap;align=right;verticalAlign=bottom;" parent="YGmvHHZKbdmyMWi4LRZA-42" connectable="0" vertex="1">
          <mxGeometry x="1" relative="1" as="geometry" />
        </mxCell>
        <mxCell id="YGmvHHZKbdmyMWi4LRZA-44" value="" style="endArrow=none;html=1;rounded=0;entryX=0.5;entryY=1;entryDx=0;entryDy=0;exitX=1;exitY=1;exitDx=0;exitDy=0;" parent="1" source="P2tkytI08X2VvsEyy3mc-130" target="YGmvHHZKbdmyMWi4LRZA-39" edge="1">
          <mxGeometry relative="1" as="geometry">
            <mxPoint x="420" y="500" as="sourcePoint" />
            <mxPoint x="580" y="500" as="targetPoint" />
            <Array as="points">
              <mxPoint x="99" y="540" />
              <mxPoint x="720" y="540" />
            </Array>
          </mxGeometry>
        </mxCell>
        <mxCell id="YGmvHHZKbdmyMWi4LRZA-45" value="1" style="resizable=0;html=1;whiteSpace=wrap;align=right;verticalAlign=bottom;" parent="YGmvHHZKbdmyMWi4LRZA-44" connectable="0" vertex="1">
          <mxGeometry x="1" relative="1" as="geometry" />
        </mxCell>
        <mxCell id="YGmvHHZKbdmyMWi4LRZA-49" value="Accept/Reject_Reservation" style="shape=rhombus;perimeter=rhombusPerimeter;whiteSpace=wrap;html=1;align=center;" parent="1" vertex="1">
          <mxGeometry x="24" y="800" width="160" height="80" as="geometry" />
        </mxCell>
        <mxCell id="YGmvHHZKbdmyMWi4LRZA-53" value="" style="endArrow=none;html=1;rounded=0;entryX=1;entryY=0.5;entryDx=0;entryDy=0;exitX=0;exitY=0.5;exitDx=0;exitDy=0;" parent="1" source="YGmvHHZKbdmyMWi4LRZA-49" target="P2tkytI08X2VvsEyy3mc-61" edge="1">
          <mxGeometry relative="1" as="geometry">
            <mxPoint x="-210" y="520" as="sourcePoint" />
            <mxPoint x="100" y="720" as="targetPoint" />
          </mxGeometry>
        </mxCell>
        <mxCell id="YGmvHHZKbdmyMWi4LRZA-54" value="M" style="resizable=0;html=1;whiteSpace=wrap;align=right;verticalAlign=bottom;" parent="YGmvHHZKbdmyMWi4LRZA-53" connectable="0" vertex="1">
          <mxGeometry x="1" relative="1" as="geometry">
            <mxPoint x="446" y="529" as="offset" />
          </mxGeometry>
        </mxCell>
        <mxCell id="YGmvHHZKbdmyMWi4LRZA-55" value="" style="endArrow=none;html=1;rounded=0;entryX=1;entryY=0.5;entryDx=0;entryDy=0;exitX=0.5;exitY=1;exitDx=0;exitDy=0;" parent="1" source="P2tkytI08X2VvsEyy3mc-132" target="YGmvHHZKbdmyMWi4LRZA-49" edge="1">
          <mxGeometry relative="1" as="geometry">
            <mxPoint x="130" y="720" as="sourcePoint" />
            <mxPoint x="290" y="720" as="targetPoint" />
          </mxGeometry>
        </mxCell>
        <mxCell id="YGmvHHZKbdmyMWi4LRZA-56" value="N" style="resizable=0;html=1;whiteSpace=wrap;align=right;verticalAlign=bottom;" parent="YGmvHHZKbdmyMWi4LRZA-55" connectable="0" vertex="1">
          <mxGeometry x="1" relative="1" as="geometry">
            <mxPoint x="-5" y="-10" as="offset" />
          </mxGeometry>
        </mxCell>
        <mxCell id="YGmvHHZKbdmyMWi4LRZA-57" value="Has" style="shape=rhombus;perimeter=rhombusPerimeter;whiteSpace=wrap;html=1;align=center;" parent="1" vertex="1">
          <mxGeometry x="960" y="593" width="120" height="60" as="geometry" />
        </mxCell>
        <mxCell id="YGmvHHZKbdmyMWi4LRZA-60" value="" style="endArrow=none;html=1;rounded=0;entryX=0.5;entryY=0;entryDx=0;entryDy=0;exitX=0.5;exitY=1;exitDx=0;exitDy=0;" parent="1" source="P2tkytI08X2VvsEyy3mc-62" target="YGmvHHZKbdmyMWi4LRZA-57" edge="1">
          <mxGeometry relative="1" as="geometry">
            <mxPoint x="760" y="750" as="sourcePoint" />
            <mxPoint x="920" y="750" as="targetPoint" />
          </mxGeometry>
        </mxCell>
        <mxCell id="YGmvHHZKbdmyMWi4LRZA-61" value="M" style="resizable=0;html=1;whiteSpace=wrap;align=right;verticalAlign=bottom;" parent="YGmvHHZKbdmyMWi4LRZA-60" connectable="0" vertex="1">
          <mxGeometry x="1" relative="1" as="geometry">
            <mxPoint x="10" y="-3" as="offset" />
          </mxGeometry>
        </mxCell>
        <mxCell id="YGmvHHZKbdmyMWi4LRZA-62" value="" style="endArrow=none;html=1;rounded=0;entryX=0.5;entryY=1;entryDx=0;entryDy=0;exitX=0.5;exitY=0;exitDx=0;exitDy=0;" parent="1" source="ME01KTfv1DTsT3AE9B-a-12" target="YGmvHHZKbdmyMWi4LRZA-57" edge="1">
          <mxGeometry relative="1" as="geometry">
            <mxPoint x="870" y="720" as="sourcePoint" />
            <mxPoint x="1030" y="720" as="targetPoint" />
          </mxGeometry>
        </mxCell>
        <mxCell id="YGmvHHZKbdmyMWi4LRZA-63" value="N" style="resizable=0;html=1;whiteSpace=wrap;align=right;verticalAlign=bottom;" parent="YGmvHHZKbdmyMWi4LRZA-62" connectable="0" vertex="1">
          <mxGeometry x="1" relative="1" as="geometry">
            <mxPoint x="40" y="17" as="offset" />
          </mxGeometry>
        </mxCell>
        <mxCell id="yOYmFh_hNFZSVhlXTB3A-2" value="" style="endArrow=none;html=1;rounded=0;entryX=0.67;entryY=0.07;entryDx=0;entryDy=0;entryPerimeter=0;" parent="1" source="YGmvHHZKbdmyMWi4LRZA-57" target="ME01KTfv1DTsT3AE9B-a-12" edge="1">
          <mxGeometry width="50" height="50" relative="1" as="geometry">
            <mxPoint x="1070" y="670" as="sourcePoint" />
            <mxPoint x="1120" y="620" as="targetPoint" />
          </mxGeometry>
        </mxCell>
      </root>
    </mxGraphModel>
  </diagram>
</mxfile>
